<?xml version="1.0"?><svg width="1600" height="1200" xmlns="http://www.w3.org/2000/svg">
 <title>Frameless Camera</title>
 <metadata id="metadata12390">image/svg+xmlOther map symbolsMohamed IbrahimPublic Domainclker.comother map symbols</metadata>
 <g>
  <title>Layer 1</title>
  <g id="layer1">
   <path d="m180.292999,30.0772c-63.771996,0 -115.874199,51.630198 -115.874199,115.111795l0,883.461029c0,63.47998 52.102203,115 115.874199,115l887.267059,0c63.779907,0 115.519897,-51.52002 115.519897,-115l0,-883.461029c0,-63.481598 -51.73999,-115.111795 -115.519897,-115.111795l-887.267059,0l0,0l0,0z" fill-rule="nonzero" fill="#ffffff" id="path2778"/>
   <path d="m706.148987,419.181c74.028015,0 138.270996,40.131012 173.752014,99.271027l209.119019,0.233948l0,-111.590973c0,-41.539001 -33.950073,-75.216003 -75.559998,-75.216003l-779.296021,0c-41.729004,0 -75.324997,33.677002 -75.324997,75.216003l0.235992,110.652985l373.203018,0.234009c35.71698,-58.904999 99.724976,-98.800995 173.870972,-98.800995" fill-rule="nonzero" fill="#231f20" id="path2780"/>
   <path d="m354.282013,296.441986l-69.313019,0l-8.014984,24.876007l83.104004,0l-5.776001,-24.876007z" fill-rule="nonzero" fill="#231f20" id="path2782"/>
   <path d="m979.390991,283.182007l-92.299011,0l-16.38501,38.371002l123.655029,0l-14.971008,-38.371002z" fill-rule="nonzero" fill="#231f20" id="path2784"/>
   <path d="m662.533997,308.292999l-79.450012,0l0,-38.252991l79.450012,0l0,38.252991zm72.848999,-53.625l-224.322998,0l-46.208008,67.354004l312.848999,0l-42.317993,-67.354004z" fill-rule="nonzero" fill="#231f20" id="path2786"/>
   <path d="m890.745972,538.400024c11.55304,25.344971 18.389038,53.272949 18.389038,82.959961c0,111.591003 -90.884033,202.179016 -202.986023,202.179016c-112.219971,0 -203.10498,-90.588013 -203.10498,-202.179016c0,-29.687012 6.718994,-57.61499 18.388977,-83.078003l-362.593979,0l0,304.618042c0,41.304993 33.595993,74.980957 75.324997,74.980957l779.296021,0c41.609924,0 75.559998,-33.675964 75.559998,-74.980957l0.22998,-304.5l-198.504028,0z" fill-rule="nonzero" fill="#231f20" id="path2788"/>
   <path d="m816.836975,554.945007c-3.182983,-5.632996 -7.190979,-10.913025 -11.552002,-15.958984c-23.69397,-28.396027 -59.174988,-47.054016 -99.135986,-47.054016c-40.078979,0 -75.559998,18.539978 -99.253967,46.820007c-4.361023,5.162964 -8.369019,10.442993 -11.788025,16.192993c-11.904968,19.477966 -19.096008,42.007996 -19.096008,66.414978c0,71.343018 58.231995,129.309998 130.138,129.309998c71.552002,0 129.783997,-57.96698 129.783997,-129.309998c0,-24.406982 -7.072998,-46.937012 -19.096008,-66.414978" fill-rule="nonzero" fill="#231f20" id="path2790"/>
  </g>
 </g>
</svg>